#!OML:ASF I:\Actors\actors\Patient Classification 2\Patient 1\Session 1\actor1.ASF
:FULLY-SPECIFIED
:DEGREES
324
root -0.689993 18.2175 5.40021 0.458788 -5.83868 -6.01395
lowerback 6.70941 2.47626 0.852068
upperback 1.97498 3.35725 0.468011
thorax -1.69917 1.67195 -0.265239
lowerneck -9.38654 -3.57195 -6.69856
upperneck 34.5077 -5.03898 4.00668
head 13.4675 -2.57947 2.0549
rclavicle -1.09332e-014 3.97569e-015
rhumerus -6.75776 25.8678 -74.873
rradius 81.4533
rwrist -23.9277
rhand -12.4694 -54.8282
rfingers 7.12502
rthumb 13.6046 -84.3636
lclavicle -1.09332e-014 3.97569e-015
lhumerus -19.4351 -40.6285 92.8007
lradius 95.8549
lwrist 36.0586
lhand -7.26436 -3.75556
lfingers 7.12502
lthumb 18.6166 25.3736
rfemur 0 0 0
rtibia 0
rfoot 0 0
rtoes 0
lfemur 17.6091 -5.08054 -12.0625
ltibia -19.9356
lfoot -3.14781 24.075
ltoes -6.07042
325
root -0.696855 18.2152 5.39068 0.387696 -5.79664 -6.10468
lowerback 6.87464 2.52414 0.943604
upperback 2.00885 3.43105 0.582404
thorax -1.75697 1.70815 -0.211931
lowerneck -9.31326 -3.63345 -6.59403
upperneck 34.4669 -5.09875 3.83968
head 13.4292 -2.61263 1.96207
rclavicle -1.67973e-014 -1.03368e-014
rhumerus -4.87823 25.9401 -74.4512
rradius 78.2115
rwrist -20.3883
rhand -15.6629 -51.6505
rfingers 7.12502
rthumb 10.5253 -81.3669
lclavicle -1.67973e-014 -1.03368e-014
lhumerus -19.529 -40.6251 93.0775
lradius 95.9176
lwrist 36.1372
lhand -7.32081 -3.95231
lfingers 7.12502
lthumb 18.5623 25.1821
rfemur 0 0 0
rtibia 0
rfoot 0 0
rtoes 0
lfemur 17.6505 -4.82859 -11.8826
ltibia -19.9089
lfoot -3.03398 23.7981
ltoes -6.04307
326
root -0.676572 18.221 5.36766 0.483257 -6.18662 -6.10064
lowerback 7.10396 2.70171 1.33326
upperback 1.97807 3.6981 0.600712
thorax -1.88989 1.83929 -0.444561
lowerneck -9.24141 -3.70353 -6.70342
upperneck 34.4245 -5.17932 3.84655
head 13.4053 -2.66011 1.97323
rclavicle -2.40529e-014 0
rhumerus -2.84929 26.3067 -73.7476
rradius 74.6932
rwrist -15.6763
rhand -17.2424 -50.05
rfingers 7.12502
rthumb 9.00148 -79.838
lclavicle -2.40529e-014 0
lhumerus -19.546 -40.6767 93.342
lradius 95.9678
lwrist 36.3034
lhand -7.45066 -4.03854
lfingers 7.12502
lthumb 18.4373 25.1077
rfemur 0 0 0
rtibia 0
rfoot 0 0
rtoes 0
lfemur 17.5308 -4.81796 -11.9908
ltibia -19.882
lfoot -3.15064 24.1858
ltoes -5.59943
327
root -0.670828 18.2243 5.35217 0.519005 -6.3973 -5.98466
lowerback 7.18176 2.87143 1.40139
upperback 2.05678 3.92971 0.656164
thorax -1.84752 1.95506 -0.446536
lowerneck -9.31739 -3.8232 -6.97699
upperneck 34.4467 -5.34937 4.03758
head 13.4611 -2.74247 2.072
rclavicle 2.32578e-014 -5.1684e-015
rhumerus -0.584453 27.0854 -72.6283
rradius 70.8208
rwrist -9.48647
rhand -16.4912 -50.2037
rfingers 7.12502
rthumb 9.72626 -79.9591
lclavicle 2.32578e-014 -5.1684e-015
lhumerus -19.4334 -40.7888 93.5324
lradius 96.0331
lwrist 36.4929
lhand -7.45709 -3.94442
lfingers 7.12502
lthumb 18.4312 25.2024
rfemur 0 0 0
rtibia 0
rfoot 0 0
rtoes 0
lfemur 17.4592 -4.65204 -12.129
ltibia -19.8607
lfoot -3.15634 24.2633
ltoes -5.44084
328
root -0.664547 18.2269 5.33634 0.547309 -6.53563 -5.9086
lowerback 7.30895 3.02318 1.59501
upperback 2.13317 4.14624 0.66171
thorax -1.8223 2.06305 -0.571035
lowerneck -9.47147 -3.97549 -7.08323
upperneck 34.4961 -5.55446 4.08873
head 13.5388 -2.83506 2.07932
rclavicle -2.09718e-014 -9.93923e-015
rhumerus 1.96244 28.192 -71.2026
rradius 66.3902
rwrist -1.6011
rhand -12.5462 -51.4176
rfingers 7.12502
rthumb 13.5306 -80.958
lclavicle -2.09718e-014 -9.93923e-015
lhumerus -19.2544 -40.9793 93.5695
lradius 96.0355
lwrist 36.6108
lhand -7.3495 -3.84219
lfingers 7.12502
lthumb 18.5347 25.2948
rfemur 0 0 0
rtibia 0
rfoot 0 0
rtoes 0
lfemur 17.368 -4.52779 -12.2214
ltibia -19.8171
lfoot -3.15678 24.302
ltoes -5.41934
329
root -0.657999 18.2292 5.31908 0.559984 -6.64614 -5.90476
lowerback 7.51798 3.16316 1.94427
upperback 2.17271 4.36092 0.642697
thorax -1.86525 2.16908 -0.813432
lowerneck -9.5142 -4.11006 -7.08905
upperneck 34.4697 -5.72955 4.04749
head 13.5492 -2.91444 2.03719
rclavicle 2.99171e-014 -5.56597e-015
rhumerus 4.72963 29.5403 -69.4046
rradius 61.5785
rwrist 6.73748
rhand -11.7133 -49.469
rfingers 7.12502
rthumb 14.3332 -78.9542
lclavicle 2.99171e-014 -5.56597e-015
lhumerus -19.0943 -41.2682 93.5405
lradius 95.9731
lwrist 36.7207
lhand -7.30829 -3.83047
lfingers 7.12502
lthumb 18.5743 25.3027
rfemur 0 0 0
rtibia 0
rfoot 0 0
rtoes 0
lfemur 17.2831 -4.4379 -12.2337
ltibia -19.7582
lfoot -3.16677 24.3213
ltoes -5.64192
330
root -0.66201 18.2322 5.31077 0.639965 -6.45129 -5.88263
lowerback 7.79936 3.25164 2.3148
upperback 2.03904 4.51414 0.542721
thorax -2.11801 2.24023 -1.15754
lowerneck -9.4316 -4.27719 -7.12954
upperneck 34.5705 -6.00967 4.15741
head 13.6033 -3.02756 2.04978
rclavicle 8.84592e-015 -1.07344e-014
rhumerus 7.08837 31.0388 -67.6194
rradius 56.9777
rwrist 12.8069
rhand -11.1646 -48.7119
rfingers 7.12502
rthumb 14.862 -78.1588
lclavicle 8.84592e-015 -1.07344e-014
lhumerus -19.2492 -41.819 93.6054
lradius 95.9425
lwrist 36.9314
lhand -7.33718 -3.79996
lfingers 7.12502
lthumb 18.5465 25.3359
rfemur 0 0 0
rtibia 0
rfoot 0 0
rtoes 0
lfemur 17.0876 -4.26537 -12.1687
ltibia -19.7097
lfoot -3.00209 23.9932
ltoes -6.13272
331
root -0.645383 18.2369 5.28961 0.709194 -6.96308 -5.78219
lowerback 8.09233 3.51823 2.70586
upperback 2.09267 4.90361 0.44704
thorax -2.16947 2.43215 -1.52418
lowerneck -9.70763 -4.45352 -7.22202
upperneck 34.6211 -6.22923 4.1636
head 13.709 -3.12764 2.03089
rclavicle 2.26615e-014 2.0276e-014
rhumerus 9.69796 32.743 -65.5032
rradius 52.9059
rwrist 15.5403
rhand -11.6778 -48.9917
rfingers 7.12502
rthumb 14.3675 -78.4744
lclavicle 2.26615e-014 2.0276e-014
lhumerus -18.8408 -42.1791 93.4009
lradius 95.8362
lwrist 37.1615
lhand -7.37904 -3.66496
lfingers 7.12502
lthumb 18.5062 25.4747
rfemur 0 0 0
rtibia 0
rfoot 0 0
rtoes 0
lfemur 17.0182 -4.18538 -12.3881
ltibia -19.6676
lfoot -3.17927 24.4055
ltoes -5.85573
